<mxfile host="65bd71144e">
    <diagram id="CX8xROLG4qJBpS7ueyeK" name="第 1 页">
        <mxGraphModel dx="1758" dy="1150" grid="1" gridSize="10" guides="1" tooltips="1" connect="1" arrows="1" fold="1" page="1" pageScale="1" pageWidth="827" pageHeight="1169" math="0" shadow="0">
            <root>
                <mxCell id="0"/>
                <mxCell id="1" parent="0"/>
                <mxCell id="2" value="&lt;a style=&quot;color: rgb(30 , 80 , 162) ; font-family: &amp;#34;tahoma&amp;#34; , &amp;#34;simsun&amp;#34; ; text-align: left&quot;&gt;mgplat web&lt;br&gt;&lt;/a&gt;" style="whiteSpace=wrap;html=1;fillColor=#fff2cc;strokeColor=#d6b656;rounded=1;" vertex="1" parent="1">
                    <mxGeometry x="150" y="220" width="120" height="60" as="geometry"/>
                </mxCell>
                <mxCell id="3" value="&lt;a style=&quot;color: rgb(30 , 80 , 162) ; font-family: &amp;#34;tahoma&amp;#34; , &amp;#34;simsun&amp;#34; ; text-align: left&quot;&gt;vscode mgplat插件&lt;br&gt;&lt;/a&gt;" style="whiteSpace=wrap;html=1;fillColor=#fff2cc;strokeColor=#d6b656;rounded=1;" vertex="1" parent="1">
                    <mxGeometry x="440" y="220" width="120" height="60" as="geometry"/>
                </mxCell>
                <mxCell id="4" value="&lt;a style=&quot;color: rgb(30 , 80 , 162) ; font-family: &amp;#34;tahoma&amp;#34; , &amp;#34;simsun&amp;#34; ; text-align: left&quot;&gt;&lt;a style=&quot;color: rgb(30 , 80 , 162) ; font-family: &amp;#34;tahoma&amp;#34; , &amp;#34;simsun&amp;#34; ; background-color: rgb(223 , 239 , 249) ; cursor: pointer&quot;&gt;MgTransferServer&lt;/a&gt;&lt;br&gt;&lt;/a&gt;" style="whiteSpace=wrap;html=1;fillColor=#f8cecc;strokeColor=#b85450;rounded=1;" vertex="1" parent="1">
                    <mxGeometry x="440" y="420" width="120" height="60" as="geometry"/>
                </mxCell>
                <mxCell id="5" value="&lt;a style=&quot;color: rgb(30 , 80 , 162) ; font-family: &amp;#34;tahoma&amp;#34; , &amp;#34;simsun&amp;#34; ; text-align: left&quot;&gt;&lt;a style=&quot;color: rgb(30 , 80 , 162) ; font-family: &amp;#34;tahoma&amp;#34; , &amp;#34;simsun&amp;#34; ; background-color: rgb(223 , 239 , 249) ; cursor: pointer&quot;&gt;FileTransferServer&lt;/a&gt;&lt;br&gt;&lt;/a&gt;" style="whiteSpace=wrap;html=1;fillColor=#f8cecc;strokeColor=#b85450;rounded=1;" vertex="1" parent="1">
                    <mxGeometry x="150" y="420" width="120" height="60" as="geometry"/>
                </mxCell>
                <mxCell id="6" value="" style="outlineConnect=0;dashed=0;verticalLabelPosition=bottom;verticalAlign=top;align=center;html=1;shape=mxgraph.aws3.user;fillColor=#D2D3D3;gradientColor=none;rounded=1;" vertex="1" parent="1">
                    <mxGeometry x="340" y="40" width="45" height="63" as="geometry"/>
                </mxCell>
            </root>
        </mxGraphModel>
    </diagram>
</mxfile>